# xmcd
#
# Track frame offsets:
#	150
#	16293
#	34857
#	50217
#	60947
#	75086
#	101121
#	120003
#	138502
#	151469
#
# Disc length: 2384 seconds
#
# Revision: 1
# Processed by: cddbd v1.5.2PL0 Copyright (c) Steve Scherf et al.
# Submitted via: audiograbber 1.83.01
#
DISCID=72094e0a
DTITLE=Dowsett, Rod - Dodging Bullets
DYEAR=1900
DGENRE=
TTITLE0=Reap What You Sew
TTITLE1=I got Me a Boat
TTITLE2=Time Will Tell
TTITLE3=Thrill of the Chase
TTITLE4=Killin Time
TTITLE5=Drunken Arsehole
TTITLE6=I'll Never Understand Why
TTITLE7=Robbin
TTITLE8=Dodging Bullets
TTITLE9=Like You Want Me to
EXTD=
EXTT0=
EXTT1=
EXTT2=
EXTT3=
EXTT4=
EXTT5=
EXTT6=
EXTT7=
EXTT8=
EXTT9=
PLAYORDER=
